<?xml version="1.0" encoding="utf-8"?>
<!-- Generator: Adobe Illustrator 27.2.0, SVG Export Plug-In . SVG Version: 6.00 Build 0)  -->
<svg version="1.1" id="Default" xmlns="http://www.w3.org/2000/svg" xmlns:xlink="http://www.w3.org/1999/xlink" x="0px" y="0px"
	 viewBox="0 0 1190.8 800" style="enable-background:new 0 0 1190.8 800;" xml:space="preserve">
<style type="text/css">
	.st0{fill:#094D6C;}
	.st1{fill:#EECD7A;}
	.st2{fill:#4A987F;}
</style>
<g id="XMLID_00000049913997756166453430000011827886430813408681_">
	<g>
		<path class="st0" d="M899.2,152.7c28.2,63,16.7,136.6-29.3,188.1c46,51.4,57.5,125.1,29.3,188.1c-28.2,63-90.7,103.5-159.7,103.5
			H622.9c-32.2,0-58.3-26.1-58.3-58.3c0-32.2,26.1-58.3,58.3-58.3h116.6c32.2,0,58.3-26.1,58.3-58.3c0-32.2-26.1-58.3-58.3-58.3
			H622.9c-32.2,0-58.3-26.1-58.3-58.3c0-32.2,26.1-58.3,58.3-58.3h116.6c32.2,0,58.3-26.1,58.3-58.3c0-32.2-26.1-58.3-58.3-58.3
			H622.9c32.2,0,58.3-26.1,58.3-58.3c0-32.2-26.1-58.3-58.3-58.3h116.6C808.5,49.1,871.1,89.7,899.2,152.7z"/>
		<path class="st1" d="M457.9,399.1c-6.5-18.2-10-37.9-10-58.3c0-20.4,3.5-40.1,10-58.3c24-68,88.8-116.6,165-116.6h116.6
			c32.2,0,58.3,26.1,58.3,58.3c0,32.2-26.1,58.3-58.3,58.3H622.9c-32.2,0-58.3,26.1-58.3,58.3c0,32.2,26.1,58.3,58.3,58.3h116.6
			c32.2,0,58.3,26.1,58.3,58.3c0,32.2-26.1,58.3-58.3,58.3H622.9C546.7,515.7,481.9,467,457.9,399.1z"/>
		<path class="st2" d="M622.9,49.1c32.2,0,58.3,26.1,58.3,58.3c0,32.2-26.1,58.3-58.3,58.3h-175c-32.2,0-58.3,26.1-58.3,58.3
			c0,32.2,26.1,58.3,58.3,58.3h10c-6.5,18.2-10,37.9-10,58.3c0,20.4,3.5,40.1,10,58.3h-10c-32.2,0-58.3,26.1-58.3,58.3
			c0,32.2,26.1,58.3,58.3,58.3h175c-32.2,0-58.3,26.1-58.3,58.3c0,32.2,26.1,58.3,58.3,58.3h-175c-69,0-131.6-40.5-159.7-103.5
			c-28.2-63-16.7-136.6,29.3-188.1c-46-51.4-57.5-125.1-29.3-188.1c28.2-63,90.7-103.5,159.7-103.5H622.9z"/>
		<path class="st0" d="M447.9,165.8h175c-76.2,0-141,48.7-165,116.6h-10c-32.2,0-58.3-26.1-58.3-58.3
			C389.6,191.9,415.7,165.8,447.9,165.8z"/>
		<path class="st0" d="M622.9,515.7h-175c-32.2,0-58.3-26.1-58.3-58.3c0-32.2,26.1-58.3,58.3-58.3h10
			C481.9,467,546.7,515.7,622.9,515.7z"/>
	</g>
	<g>
	</g>
</g>
<g>
	<path class="st0" d="M124.4,728.4l20.5,1.4c-1.2,5.5-4.3,10.2-9.3,14.1s-11.7,5.8-20.2,5.8c-9.5,0-17-2.7-22.6-8.2
		c-5.6-5.5-8.4-12.2-8.4-20.3c0-8.4,2.8-15.5,8.3-21.2c5.6-5.8,13-8.7,22.2-8.7c9,0,16.2,2.7,21.8,8.2c5.5,5.4,8.3,12.9,8.3,22.2
		c0,0.8,0,1.8-0.1,3.2h-37.6c0.1,3.5,0.7,6.2,1.9,7.9c1.2,1.7,3.4,2.6,6.7,2.6C120.7,735.3,123.5,733,124.4,728.4z M122.9,713.8
		c0-3.8-0.8-6.3-2.3-7.6c-1.5-1.3-3.3-2-5.5-2c-5.2,0-7.8,3.2-7.8,9.6H122.9z"/>
	<path class="st0" d="M187.4,725.9l18.8,1.6c-0.9,6.5-3.6,11.9-8.2,16c-4.6,4.1-10.8,6.2-18.4,6.2c-8.6,0-15.5-2.7-20.9-8.1
		c-5.4-5.4-8-12.3-8-20.7c0-8.6,2.7-15.7,8-21.3c5.3-5.6,12.2-8.4,20.7-8.4c7.5,0,13.7,2.1,18.4,6.3c4.7,4.2,7.5,9.5,8.2,16
		l-19.3,1.6c-0.8-5.9-3.1-8.9-6.7-8.9c-2.4,0-4.1,1.1-5.2,3.2c-1.1,2.2-1.6,5.9-1.6,11.2c0,4.6,0.5,8,1.6,10.2s3,3.3,5.7,3.3
		C184.3,734.3,186.6,731.5,187.4,725.9z"/>
	<path class="st0" d="M208.2,725.5l19.6-2.4c1.3,6.9,5,10.3,11,10.3c2.8,0,5-0.7,6.7-2.2c1.7-1.4,2.6-3.4,2.6-5.8
		c0-1.6-0.5-3-1.4-4.3c-0.9-1.2-1.9-2.1-3-2.6c-1.1-0.5-2.9-0.7-5.5-0.7h-9.2v-15.7h7.7c4.1,0,6.8-0.7,7.9-2.2
		c1.2-1.5,1.8-3,1.8-4.6c0-2-0.7-3.6-2.2-5c-1.5-1.3-3.4-2-5.8-2c-5.2,0-8.3,2.9-9.4,8.6l-18.2-2.9c1.7-7.1,5.2-12.5,10.5-16.3
		c5.4-3.8,11.7-5.7,19-5.7c8.2,0,14.9,1.9,19.9,5.8c5,3.9,7.5,9,7.5,15.4c0,3.9-1.1,7.2-3.2,10.1c-2.1,2.9-4.8,4.8-8.1,5.8
		c9,2.8,13.6,8.7,13.6,17.7c0,7.2-2.8,12.8-8.2,16.8c-5.5,4-12.6,6-21.4,6C222.9,749.7,212.2,741.7,208.2,725.5z"/>
	<path class="st0" d="M302.6,711.4v17.3h-28v-17.3H302.6z"/>
	<path class="st0" d="M332,766.3h-22v-73.8h20.2v7.9c2.8-6.1,8.1-9.1,15.8-9.1c6.7,0,11.9,2.6,15.7,7.8c3.8,5.2,5.7,12.3,5.7,21.3
		c0,9-1.9,16.1-5.8,21.4c-3.9,5.3-9,7.9-15.4,7.9c-6.3,0-11-2.4-14.3-7.2V766.3z M332,728c0,2.5,0.6,4.4,1.7,5.8
		c1.1,1.4,2.6,2.1,4.2,2.1c2.6,0,4.5-1.2,5.5-3.7c1-2.4,1.5-6.2,1.5-11.3c0-5.8-0.6-10-1.7-12.3c-1.1-2.4-2.9-3.6-5.1-3.6
		c-1.4,0-2.7,0.5-4.1,1.6c-1.3,1.1-2,2.8-2,5.2V728z"/>
	<path class="st0" d="M427.2,692.4l-22,60.8c-1.7,4.6-4.1,8.2-7.3,10.8c-3.2,2.6-8,3.9-14.6,3.9c-1.6,0-5.3-0.2-11-0.5v-15.6
		c2.9,0.4,5.5,0.7,7.9,0.7c6.3,0,9.5-1.4,9.5-4.2c0-0.9-0.3-2.2-0.9-3.8l-20.1-52h23.5l9.3,29.9l9.7-29.9H427.2z"/>
	<path class="st0" d="M467.3,692.4v14.3h-11.2v20.7c0,2.8,0.5,4.5,1.6,5c1.1,0.5,2.2,0.8,3.3,0.8c1.8,0,3.9-0.3,6.3-0.9V748
		c-4.3,0.8-8.6,1.3-12.8,1.3c-6.8,0-11.7-1.5-14.9-4.4c-3.2-2.9-4.8-7.5-4.8-13.9l0.1-6.6v-17.7h-8.4v-14.3h8.4l0.3-18.3l20.9-0.3
		v18.6H467.3z"/>
	<path class="st0" d="M529.7,748.5h-22v-33.8c0-3.1-0.3-5.2-1-6.4c-0.7-1.2-2-1.7-3.9-1.7c-1.5,0-2.8,0.5-3.9,1.4s-1.8,1.8-1.9,2.8
		c-0.2,1-0.3,3-0.3,6v31.7h-22v-75.3h22v25.8c4-5.2,9.2-7.8,15.6-7.8c3.2,0,6.1,0.6,8.5,1.7c2.4,1.1,4.3,2.6,5.7,4.3
		s2.2,3.5,2.7,5.1c0.5,1.7,0.7,4.9,0.7,9.6V748.5z"/>
	<path class="st0" d="M568.8,749.7c-9.3,0-16.7-2.9-22.2-8.7c-5.5-5.8-8.2-12.6-8.2-20.4c0-8.4,2.9-15.4,8.6-21
		c5.7-5.6,13.2-8.4,22.3-8.4c9.2,0,16.7,2.8,22.3,8.3s8.4,12.4,8.4,20.7c0,8.4-2.8,15.4-8.5,21C585.8,746.9,578.2,749.7,568.8,749.7
		z M569.1,736.4c3.4,0,5.5-1.8,6.3-5.3c0.8-3.5,1.1-7.3,1.1-11.1c0-5.3-0.5-9-1.6-11.4c-1.1-2.3-3-3.5-5.7-3.5
		c-2.5,0-4.4,1.2-5.6,3.6c-1.2,2.4-1.8,6.3-1.8,11.8c0,6.4,0.6,10.7,1.8,12.8C564.9,735.3,566.7,736.4,569.1,736.4z"/>
	<path class="st0" d="M663.3,748.5h-22v-35.3c0-2.9-0.5-4.8-1.4-5.6c-0.9-0.8-2-1.2-3.4-1.2c-4,0-6,2.8-6,8.4v33.7h-22v-56.1H629
		v7.9c3-6.1,8.4-9.1,16.2-9.1c4.1,0,7.5,0.8,10.3,2.3c2.8,1.6,4.8,3.6,6,6.1c1.2,2.5,1.8,6.8,1.8,12.9V748.5z"/>
	<path class="st0" d="M698.6,711.4v17.3h-28v-17.3H698.6z"/>
	<path class="st0" d="M783.3,692.4l-17.8,56.1h-15.8l-7.3-30.4l-7.7,30.4h-15.7L701,692.4h21.6l7.4,27.5l7.1-27.5h16.3l7,27.5
		l7.8-27.5H783.3z"/>
	<path class="st0" d="M811,748.5h-21.1v-56.1h18.3V704c2.1-8.4,7-12.6,14.6-12.6c0.8,0,1.8,0.1,3.2,0.2v19.6
		c-1.5-0.4-2.9-0.6-4.1-0.6c-7.3,0-10.9,4.1-10.9,12.2V748.5z"/>
	<path class="st0" d="M889.5,748.5h-21c-0.5-2.4-0.8-5-0.8-7.8c-4,6-10,9-18,9c-6.6,0-11.6-1.7-14.9-5.1c-3.3-3.4-4.9-7.3-4.9-11.6
		c0-5.9,2.7-10.7,8.1-14.4s14.9-5.9,28.7-6.6v-1.3c0-2.5-0.6-4.1-1.7-4.9c-1.1-0.8-2.8-1.2-4.9-1.2c-5.1,0-7.9,2-8.5,6.1l-20.1-1.9
		c2.9-11.7,12.6-17.6,29.3-17.6c4.5,0,8.7,0.5,12.5,1.4c3.8,0.9,6.8,2.3,9,4.2c2.2,1.9,3.7,3.9,4.4,6.1c0.8,2.1,1.1,6.2,1.1,12.3
		v22.4C887.8,741.9,888.4,745.5,889.5,748.5z M866.7,722.3c-9.4,1-14.1,4-14.1,9c0,3.4,1.9,5.1,5.6,5.1c2.4,0,4.4-0.7,6-2.1
		c1.7-1.4,2.5-4.5,2.5-9.3V722.3z"/>
	<path class="st0" d="M921.3,766.3h-22v-73.8h20.2v7.9c2.8-6.1,8.1-9.1,15.8-9.1c6.7,0,11.9,2.6,15.7,7.8c3.8,5.2,5.7,12.3,5.7,21.3
		c0,9-1.9,16.1-5.8,21.4c-3.9,5.3-9,7.9-15.4,7.9c-6.3,0-11-2.4-14.3-7.2V766.3z M921.3,728c0,2.5,0.6,4.4,1.7,5.8
		c1.1,1.4,2.6,2.1,4.2,2.1c2.6,0,4.5-1.2,5.5-3.7c1-2.4,1.5-6.2,1.5-11.3c0-5.8-0.6-10-1.7-12.3c-1.1-2.4-2.9-3.6-5.1-3.6
		c-1.4,0-2.7,0.5-4.1,1.6c-1.3,1.1-2,2.8-2,5.2V728z"/>
	<path class="st0" d="M987.5,766.3h-22v-73.8h20.2v7.9c2.8-6.1,8.1-9.1,15.8-9.1c6.7,0,11.9,2.6,15.7,7.8c3.8,5.2,5.7,12.3,5.7,21.3
		c0,9-1.9,16.1-5.8,21.4c-3.9,5.3-9,7.9-15.4,7.9c-6.3,0-11-2.4-14.3-7.2V766.3z M987.5,728c0,2.5,0.6,4.4,1.7,5.8
		c1.1,1.4,2.6,2.1,4.2,2.1c2.6,0,4.5-1.2,5.5-3.7c1-2.4,1.5-6.2,1.5-11.3c0-5.8-0.6-10-1.7-12.3c-1.1-2.4-2.9-3.6-5.1-3.6
		c-1.4,0-2.7,0.5-4.1,1.6c-1.3,1.1-2,2.8-2,5.2V728z"/>
	<path class="st0" d="M1068.9,728.4l20.5,1.4c-1.2,5.5-4.3,10.2-9.3,14.1s-11.7,5.8-20.2,5.8c-9.5,0-17-2.7-22.6-8.2
		c-5.6-5.5-8.4-12.2-8.4-20.3c0-8.4,2.8-15.5,8.3-21.2c5.6-5.8,13-8.7,22.2-8.7c9,0,16.2,2.7,21.8,8.2c5.5,5.4,8.3,12.9,8.3,22.2
		c0,0.8,0,1.8-0.1,3.2h-37.6c0.1,3.5,0.7,6.2,1.9,7.9c1.2,1.7,3.4,2.6,6.7,2.6C1065.2,735.3,1068,733,1068.9,728.4z M1067.4,713.8
		c0-3.8-0.8-6.3-2.3-7.6c-1.5-1.3-3.3-2-5.5-2c-5.2,0-7.8,3.2-7.8,9.6H1067.4z"/>
	<path class="st0" d="M1119.1,748.5h-21.1v-56.1h18.3V704c2.1-8.4,7-12.6,14.6-12.6c0.8,0,1.8,0.1,3.2,0.2v19.6
		c-1.5-0.4-2.9-0.6-4.1-0.6c-7.3,0-10.9,4.1-10.9,12.2V748.5z"/>
</g>
</svg>
